<svg t="1624613808372" class="icon" viewBox="0 0 1024 1024" version="1.1" xmlns="http://www.w3.org/2000/svg" p-id="1830"
     width="200" height="200">
    <path d="M478.4128 85.248c-24.4224-7.5776-49.5616 8.96-52.7872 34.3552-7.2192 56.576-55.1424 137.216-137.0112 221.44-24.832 25.5488-52.1216 48.64-80.1792 70.6048-65.8432 51.5584-112.7424 133.1712-112.7424 235.4688 0 114.0224 72.2432 306.176 427.776 306.176s406.9888-231.9872 406.9888-306.176c0-68.1984-14.848-207.6672-126.3616-287.488-15.36-11.008-37.1712-5.8368-45.9776 10.9056-12.032 22.9376-29.3376 42.9056-80.0256 69.4784 22.4768-79.104 47.104-278.1184-199.68-354.7648z"
          fill="#DD3E3A" p-id="1831"></path>
    <path d="M758.8352 402.7904c-44.9536 44.1856-98.56 53.248-98.56 53.248 19.3024-67.9936 40.4992-239.0016-171.264-305.152-21.1456-6.6048-43.264 7.3216-46.08 29.3376-7.5264 59.0336-37.5296 170.1376-154.368 250.6752-66.9696 42.752-129.6384 105.2672-129.6384 203.4176 0 98.1504 62.208 263.5264 368.2304 263.5264s350.3104-199.68 350.3104-263.5264c0-54.5792-11.1104-162.2016-89.856-232.2432a21.05856 21.05856 0 0 0-28.7744 0.7168z"
          fill="#E54945" p-id="1832"></path>
    <path d="M719.1552 469.6576c-39.3216 19.5584-93.6448 26.3168-93.6448 26.3168 17.5104-51.8144 40.3968-183.1424-121.088-242.1248-15.9232-5.8368-33.1264 4.4032-36.096 21.0944-8.0384 45.2608-35.4304 129.792-128.6144 187.4944-53.2992 30.4128-104.0384 76.288-107.776 151.9616-3.7376 75.7248 37.9392 205.6704 274.0224 217.2928 236.0832 11.6224 277.8624-140.6976 280.2688-190.0032 1.8944-38.6048-1.6384-111.872-46.9504-167.7312-4.7616-5.9392-13.2096-7.7312-20.1216-4.3008z"
          fill="#E4524B" p-id="1833"></path>
    <path d="M485.2736 395.1104l76.5952-62.5664s29.7984 1.28 27.3408 59.136c-2.4576 57.856 19.3024 115.8656 50.6368 143.3088 31.3856 27.4432 177.152 109.1584 97.3824 330.752-96.1024 85.2992-184.32 30.6176-184.32 30.6176l-67.6352-501.248z"
          fill="#DD3E3A" p-id="1834"></path>
    <path d="M586.24 894.0032c85.0432-8.3456 149.6064-80.5888 143.9744-163.6864-0.2048-3.3792-0.5632-6.656-0.9728-9.7792-9.1136-65.536-40.0384-112.4864-114.176-177.408-56.32-49.3568-52.2752-139.8272-44.4928-190.72 2.6112-16.9472-13.4144-30.5152-28.928-24.4736C460.8 359.424 272.896 450.6624 261.4784 622.2848c-4.9152 73.9328 17.408 138.8032 49.152 192.3072 25.0368 42.1376 68.6592 70.8096 118.272 77.0048 28.416 3.5328 59.3408 5.4272 92.9792 5.4272 22.6816 0 44.1344-1.024 64.3584-3.0208z"
          fill="#E84C1C" p-id="1835"></path>
    <path d="M604.7744 845.9264c20.224-4.7616 36.6592-19.6608 43.9808-39.2192 11.52-30.7712 14.5408-60.416 11.7248-81.152-6.656-48.4864-45.1072-82.8928-102.1952-126.5664-39.936-30.5664-37.12-96.256-31.8464-132.9664 1.7408-12.2368-9.472-22.016-20.48-17.92-54.272 19.968-176.9984 78.848-185.2416 204.7488-4.3008 65.4336 19.7632 121.2928 50.0224 164.608 11.3664 16.2816 28.5184 27.392 47.9232 30.976 26.8288 4.9152 57.088 7.68 91.1872 7.68 35.9936-0.0512 67.4816-3.7376 94.9248-10.1888z"
          fill="#EC6920" p-id="1836"></path>
    <path d="M558.8992 790.6304c13.4144-3.9424 23.9104-14.9504 28.2112-28.928 6.7584-22.016 7.8848-42.9568 5.3248-57.4464-5.9392-33.8944-32.768-56.9344-72.3456-85.9136-27.648-20.2752-27.8528-66.56-25.4464-92.5696 0.8192-8.6528-7.0144-15.2064-14.2848-11.9808-35.6864 15.7184-115.968 60.8768-117.6064 149.6576-0.8192 46.1312 16.9984 84.6848 38.5536 114.2272 8.0896 11.1104 19.9168 18.3808 33.024 20.3264 18.1248 2.6624 38.4512 3.6352 61.2352 2.6112 24.2688-1.0752 45.1584-4.608 63.3344-9.984z"
          fill="#EB931E" p-id="1837"></path>
    <path d="M456.3456 748.6464c-7.3216 0.3584-14.6944-2.4064-20.1728-8.192-45.824-48.5376-26.624-112.6912-25.8048-115.4048 4.352-14.0288 19.0464-21.8624 32.8704-17.4592 13.7728 4.4032 21.4528 19.2512 17.2032 33.28-0.5632 1.9456-10.3424 37.376 13.568 62.6688 10.0352 10.6496 9.6768 27.4944-0.768 37.6832a25.7024 25.7024 0 0 1-16.896 7.424z"
          fill="#F2C5B3" p-id="1838"></path>
</svg>
